0
SECTION
2
HEADER
9
$ACADVER
1
AC1008
9
$UCSORG
10
0.0
20
0.0
30
0.0
9
$UCSXDIR
10
1.0
20
0.0
30
0.0
9
$TILEMODE
70
1
9
$UCSYDIR
10
0.0
20
1.0
30
0.0
9
$EXTMIN
10
-52.858746
20
-23.655579
30
0.000005
9
$EXTMAX
10
52.858772
20
20.000032
30
191.000183
0
ENDSEC
0
SECTION
2
TABLES
0
TABLE
2
LTYPE
70
1
0
LTYPE
2
CONTINUOUS
70
64
3
Solid line
72
65
73
0
40
0.0
0
ENDTAB
0
TABLE
2
LAYER
70
5
0
LAYER
2
CABINET
70
0
62
34
6
CONTINUOUS
0
LAYER
2
DOOR02
70
0
62
204
6
CONTINUOUS
0
LAYER
2
DOOR01
70
0
62
231
6
CONTINUOUS
0
LAYER
2
DOOR03
70
0
62
204
6
CONTINUOUS
0
LAYER
2
DOOR04
70
0
62
231
6
CONTINUOUS
0
ENDTAB
0
TABLE
2
STYLE
70
1
0
STYLE
2
STANDARD
70
0
40
0.0
41
1.0
50
0.0
71
0
42
0.2
3
txt
4

0
ENDTAB
0
TABLE
2
UCS
70
0
0
ENDTAB
0
ENDSEC
0
SECTION
2
ENTITIES
0
POLYLINE
8
CABINET
66
1
70
64
71
40
72
64
62
34
0
VERTEX
8
CABINET
10
52.858753
20
19.999989
30
0.000017
70
192
0
VERTEX
8
CABINET
10
-52.858738
20
20.000032
30
0.000025
70
192
0
VERTEX
8
CABINET
10
52.858772
20
19.999962
30
191.000107
70
192
0
VERTEX
8
CABINET
10
-52.858723
20
20.000004
30
191.000183
70
192
0
VERTEX
8
CABINET
10
-52.858746
20
-20.000015
30
0.000015
70
192
0
VERTEX
8
CABINET
10
52.858746
20
-19.999981
30
0.000005
70
192
0
VERTEX
8
CABINET
10
52.858768
20
-19.999796
30
191.000183
70
192
0
VERTEX
8
CABINET
10
-52.858723
20
-19.999691
30
191.000183
70
192
0
VERTEX
8
CABINET
10
-51.858742
20
-19.999731
30
9.000024
70
192
0
VERTEX
8
CABINET
10
51.858768
20
-19.999720
30
190.000183
70
192
0
VERTEX
8
CABINET
10
-51.858723
20
-19.999691
30
190.000183
70
192
0
VERTEX
8
CABINET
10
51.858746
20
-19.999767
30
9.000006
70
192
0
VERTEX
8
CABINET
10
-51.858738
20
19.000017
30
9.000024
70
192
0
VERTEX
8
CABINET
10
51.858765
20
18.999990
30
9.000025
70
192
0
VERTEX
8
CABINET
10
51.858780
20
18.999962
30
190.000107
70
192
0
VERTEX
8
CABINET
10
-51.858723
20
19.000019
30
190.000183
70
192
0
VERTEX
8
CABINET
10
51.858772
20
-18.426678
30
53.000080
70
192
0
VERTEX
8
CABINET
10
51.858776
20
19.000013
30
53.000095
70
192
0
VERTEX
8
CABINET
10
-51.858738
20
19.000011
30
53.000057
70
192
0
VERTEX
8
CABINET
10
-51.858746
20
-18.426664
30
53.000042
70
192
0
VERTEX
8
CABINET
10
51.858757
20
-18.426676
30
55.000080
70
192
0
VERTEX
8
CABINET
10
51.858761
20
19.000013
30
55.000095
70
192
0
VERTEX
8
CABINET
10
-51.858738
20
19.000011
30
55.000057
70
192
0
VERTEX
8
CABINET
10
-51.858746
20
-18.426680
30
55.000042
70
192
0
VERTEX
8
CABINET
10
-51.858734
20
19.000019
30
98.549934
70
192
0
VERTEX
8
CABINET
10
51.858784
20
19.000006
30
98.549973
70
192
0
VERTEX
8
CABINET
10
51.858780
20
-18.426676
30
98.549965
70
192
0
VERTEX
8
CABINET
10
-51.858742
20
-18.426664
30
98.549919
70
192
0
VERTEX
8
CABINET
10
51.858768
20
19.000021
30
100.549980
70
192
0
VERTEX
8
CABINET
10
51.858765
20
-18.426676
30
100.549965
70
192
0
VERTEX
8
CABINET
10
-51.858734
20
19.000019
30
100.549934
70
192
0
VERTEX
8
CABINET
10
-51.858742
20
-18.426678
30
100.549919
70
192
0
VERTEX
8
CABINET
10
-51.858727
20
19.000011
30
144.067520
70
192
0
VERTEX
8
CABINET
10
51.858795
20
18.999998
30
144.067551
70
192
0
VERTEX
8
CABINET
10
51.858791
20
-18.426683
30
144.067551
70
192
0
VERTEX
8
CABINET
10
-51.858734
20
-18.426670
30
144.067505
70
192
0
VERTEX
8
CABINET
10
51.858772
20
19.000015
30
146.067566
70
192
0
VERTEX
8
CABINET
10
51.858765
20
-18.426683
30
146.067551
70
192
0
VERTEX
8
CABINET
10
-51.858727
20
19.000011
30
146.067520
70
192
0
VERTEX
8
CABINET
10
-51.858734
20
-18.426685
30
146.067505
70
192
0
VERTEX
8
CABINET
10
0
20
0
30
0
70
128
71
3
72
1
73
-2
0
VERTEX
8
CABINET
10
0
20
0
30
0
70
128
71
4
72
-3
73
2
0
VERTEX
8
CABINET
10
0
20
0
30
0
70
128
71
6
72
5
73
-2
0
VERTEX
8
CABINET
10
0
20
0
30
0
70
128
71
1
72
-6
73
2
0
VERTEX
8
CABINET
10
0
20
0
30
0
70
128
71
7
72
6
73
-1
0
VERTEX
8
CABINET
10
0
20
0
30
0
70
128
71
3
72
-7
73
1
0
VERTEX
8
CABINET
10
0
20
0
30
0
70
128
71
8
72
7
73
-3
0
VERTEX
8
CABINET
10
0
20
0
30
0
70
128
71
4
72
-8
73
3
0
VERTEX
8
CABINET
10
0
20
0
30
0
70
128
71
5
72
8
73
-4
0
VERTEX
8
CABINET
10
0
20
0
30
0
70
128
71
2
72
-5
73
4
0
VERTEX
8
CABINET
10
0
20
0
30
0
70
128
71
-9
72
8
73
-5
0
VERTEX
8
CABINET
10
0
20
0
30
0
70
128
71
-9
72
-5
73
12
0
VERTEX
8
CABINET
10
0
20
0
30
0
70
128
71
-6
72
-12
73
5
0
VERTEX
8
CABINET
10
0
20
0
30
0
70
128
71
-10
72
7
73
-8
0
VERTEX
8
CABINET
10
0
20
0
30
0
70
128
71
6
72
-7
73
-10
0
VERTEX
8
CABINET
10
0
20
0
30
0
70
128
71
11
72
-10
73
-8
0
VERTEX
8
CABINET
10
0
20
0
30
0
70
128
71
-8
72
9
73
-11
0
VERTEX
8
CABINET
10
0
20
0
30
0
70
128
71
-6
72
10
73
-12
0
VERTEX
8
CABINET
10
0
20
0
30
0
70
128
71
-15
72
13
73
14
0
VERTEX
8
CABINET
10
0
20
0
30
0
70
128
71
16
72
-13
73
15
0
VERTEX
8
CABINET
10
0
20
0
30
0
70
128
71
-12
72
13
73
9
0
VERTEX
8
CABINET
10
0
20
0
30
0
70
128
71
-16
72
9
73
13
0
VERTEX
8
CABINET
10
0
20
0
30
0
70
128
71
10
72
15
73
-14
0
VERTEX
8
CABINET
10
0
20
0
30
0
70
128
71
10
72
-11
73
15
0
VERTEX
8
CABINET
10
0
20
0
30
0
70
128
71
16
72
-15
73
11
0
VERTEX
8
CABINET
10
0
20
0
30
0
70
128
71
11
72
-9
73
16
0
VERTEX
8
CABINET
10
0
20
0
30
0
70
128
71
14
72
-13
73
12
0
VERTEX
8
CABINET
10
0
20
0
30
0
70
128
71
12
72
-10
73
14
0
VERTEX
8
CABINET
10
0
20
0
30
0
70
128
71
19
72
18
73
-17
0
VERTEX
8
CABINET
10
0
20
0
30
0
70
128
71
20
72
-19
73
17
0
VERTEX
8
CABINET
10
0
20
0
30
0
70
128
71
22
72
21
73
-17
0
VERTEX
8
CABINET
10
0
20
0
30
0
70
128
71
18
72
-22
73
17
0
VERTEX
8
CABINET
10
0
20
0
30
0
70
128
71
23
72
22
73
-18
0
VERTEX
8
CABINET
10
0
20
0
30
0
70
128
71
19
72
-23
73
18
0
VERTEX
8
CABINET
10
0
20
0
30
0
70
128
71
24
72
23
73
-19
0
VERTEX
8
CABINET
10
0
20
0
30
0
70
128
71
20
72
-24
73
19
0
VERTEX
8
CABINET
10
0
20
0
30
0
70
128
71
21
72
24
73
-20
0
VERTEX
8
CABINET
10
0
20
0
30
0
70
128
71
17
72
-21
73
20
0
VERTEX
8
CABINET
10
0
20
0
30
0
70
128
71
23
72
24
73
-21
0
VERTEX
8
CABINET
10
0
20
0
30
0
70
128
71
22
72
-23
73
21
0
VERTEX
8
CABINET
10
0
20
0
30
0
70
128
71
25
72
26
73
-27
0
VERTEX
8
CABINET
10
0
20
0
30
0
70
128
71
28
72
-25
73
27
0
VERTEX
8
CABINET
10
0
20
0
30
0
70
128
71
29
72
30
73
-27
0
VERTEX
8
CABINET
10
0
20
0
30
0
70
128
71
26
72
-29
73
27
0
VERTEX
8
CABINET
10
0
20
0
30
0
70
128
71
31
72
29
73
-26
0
VERTEX
8
CABINET
10
0
20
0
30
0
70
128
71
25
72
-31
73
26
0
VERTEX
8
CABINET
10
0
20
0
30
0
70
128
71
32
72
31
73
-25
0
VERTEX
8
CABINET
10
0
20
0
30
0
70
128
71
28
72
-32
73
25
0
VERTEX
8
CABINET
10
0
20
0
30
0
70
128
71
30
72
32
73
-28
0
VERTEX
8
CABINET
10
0
20
0
30
0
70
128
71
27
72
-30
73
28
0
VERTEX
8
CABINET
10
0
20
0
30
0
70
128
71
31
72
32
73
-30
0
VERTEX
8
CABINET
10
0
20
0
30
0
70
128
71
29
72
-31
73
30
0
VERTEX
8
CABINET
10
0
20
0
30
0
70
128
71
33
72
34
73
-35
0
VERTEX
8
CABINET
10
0
20
0
30
0
70
128
71
36
72
-33
73
35
0
VERTEX
8
CABINET
10
0
20
0
30
0
70
128
71
37
72
38
73
-35
0
VERTEX
8
CABINET
10
0
20
0
30
0
70
128
71
34
72
-37
73
35
0
VERTEX
8
CABINET
10
0
20
0
30
0
70
128
71
39
72
37
73
-34
0
VERTEX
8
CABINET
10
0
20
0
30
0
70
128
71
33
72
-39
73
34
0
VERTEX
8
CABINET
10
0
20
0
30
0
70
128
71
40
72
39
73
-33
0
VERTEX
8
CABINET
10
0
20
0
30
0
70
128
71
36
72
-40
73
33
0
VERTEX
8
CABINET
10
0
20
0
30
0
70
128
71
38
72
40
73
-36
0
VERTEX
8
CABINET
10
0
20
0
30
0
70
128
71
35
72
-38
73
36
0
VERTEX
8
CABINET
10
0
20
0
30
0
70
128
71
39
72
40
73
-38
0
VERTEX
8
CABINET
10
0
20
0
30
0
70
128
71
37
72
-39
73
38
0
SEQEND
8
CABINET
0
POLYLINE
8
DOOR02
66
1
70
64
71
8
72
12
62
204
0
VERTEX
8
DOOR02
10
0.501099
20
-18.999762
30
9.000015
70
192
0
VERTEX
8
DOOR02
10
51.858738
20
-18.999769
30
9.000015
70
192
0
VERTEX
8
DOOR02
10
51.858749
20
-18.999722
30
99.000092
70
192
0
VERTEX
8
DOOR02
10
0.501110
20
-18.999716
30
99.000092
70
192
0
VERTEX
8
DOOR02
10
0.501099
20
-20.999762
30
9.000027
70
192
0
VERTEX
8
DOOR02
10
51.858738
20
-20.999767
30
9.000023
70
192
0
VERTEX
8
DOOR02
10
51.858749
20
-20.999722
30
99.000092
70
192
0
VERTEX
8
DOOR02
10
0.500805
20
-20.999716
30
99.000092
70
192
0
VERTEX
8
DOOR02
10
0
20
0
30
0
70
128
71
3
72
2
73
-1
0
VERTEX
8
DOOR02
10
0
20
0
30
0
70
128
71
4
72
-3
73
1
0
VERTEX
8
DOOR02
10
0
20
0
30
0
70
128
71
6
72
5
73
-1
0
VERTEX
8
DOOR02
10
0
20
0
30
0
70
128
71
2
72
-6
73
1
0
VERTEX
8
DOOR02
10
0
20
0
30
0
70
128
71
7
72
6
73
-2
0
VERTEX
8
DOOR02
10
0
20
0
30
0
70
128
71
3
72
-7
73
2
0
VERTEX
8
DOOR02
10
0
20
0
30
0
70
128
71
8
72
7
73
-3
0
VERTEX
8
DOOR02
10
0
20
0
30
0
70
128
71
4
72
-8
73
3
0
VERTEX
8
DOOR02
10
0
20
0
30
0
70
128
71
5
72
8
73
-4
0
VERTEX
8
DOOR02
10
0
20
0
30
0
70
128
71
1
72
-5
73
4
0
VERTEX
8
DOOR02
10
0
20
0
30
0
70
128
71
7
72
8
73
-5
0
VERTEX
8
DOOR02
10
0
20
0
30
0
70
128
71
6
72
-7
73
5
0
SEQEND
8
DOOR02
0
POLYLINE
8
DOOR01
66
1
70
64
71
30
72
52
62
231
0
VERTEX
8
DOOR01
10
-51.858753
20
-18.999743
30
9.000031
70
192
0
VERTEX
8
DOOR01
10
-0.217999
20
-18.999756
30
9.000027
70
192
0
VERTEX
8
DOOR01
10
-0.218292
20
-18.999710
30
99.000092
70
192
0
VERTEX
8
DOOR01
10
-51.858742
20
-18.999697
30
99.000092
70
192
0
VERTEX
8
DOOR01
10
-51.858753
20
-20.999743
30
9.000019
70
192
0
VERTEX
8
DOOR01
10
-0.217999
20
-20.999756
30
9.000027
70
192
0
VERTEX
8
DOOR01
10
-0.218292
20
-20.999710
30
99.000092
70
192
0
VERTEX
8
DOOR01
10
-51.858742
20
-20.999695
30
99.000015
70
192
0
VERTEX
8
DOOR01
10
-3.382214
20
-20.999710
30
53.997513
70
192
0
VERTEX
8
DOOR01
10
-2.671108
20
-20.999710
30
53.997513
70
192
0
VERTEX
8
DOOR01
10
-2.806911
20
-20.999710
30
54.415493
70
192
0
VERTEX
8
DOOR01
10
-3.162472
20
-20.999710
30
54.673820
70
192
0
VERTEX
8
DOOR01
10
-3.601955
20
-20.999710
30
54.673820
70
192
0
VERTEX
8
DOOR01
10
-3.957516
20
-20.999710
30
54.415493
70
192
0
VERTEX
8
DOOR01
10
-4.093319
20
-20.999710
30
53.997513
70
192
0
VERTEX
8
DOOR01
10
-3.957516
20
-20.999710
30
53.579533
70
192
0
VERTEX
8
DOOR01
10
-3.601955
20
-20.999710
30
53.321205
70
192
0
VERTEX
8
DOOR01
10
-3.162472
20
-20.999710
30
53.321205
70
192
0
VERTEX
8
DOOR01
10
-2.806911
20
-20.999710
30
53.579533
70
192
0
VERTEX
8
DOOR01
10
-2.671108
20
-23.655575
30
53.997513
70
192
0
VERTEX
8
DOOR01
10
-2.806911
20
-23.655575
30
54.415493
70
192
0
VERTEX
8
DOOR01
10
-3.162472
20
-23.655575
30
54.673820
70
192
0
VERTEX
8
DOOR01
10
-3.601955
20
-23.655575
30
54.673820
70
192
0
VERTEX
8
DOOR01
10
-3.957516
20
-23.655575
30
54.415493
70
192
0
VERTEX
8
DOOR01
10
-4.093319
20
-23.655575
30
53.997513
70
192
0
VERTEX
8
DOOR01
10
-3.957516
20
-23.655575
30
53.579533
70
192
0
VERTEX
8
DOOR01
10
-3.601955
20
-23.655577
30
53.321205
70
192
0
VERTEX
8
DOOR01
10
-3.162472
20
-23.655577
30
53.321205
70
192
0
VERTEX
8
DOOR01
10
-2.806911
20
-23.655575
30
53.579533
70
192
0
VERTEX
8
DOOR01
10
-3.382214
20
-23.655575
30
53.997513
70
192
0
VERTEX
8
DOOR01
10
0
20
0
30
0
70
128
71
3
72
2
73
-1
0
VERTEX
8
DOOR01
10
0
20
0
30
0
70
128
71
4
72
-3
73
1
0
VERTEX
8
DOOR01
10
0
20
0
30
0
70
128
71
6
72
5
73
-1
0
VERTEX
8
DOOR01
10
0
20
0
30
0
70
128
71
2
72
-6
73
1
0
VERTEX
8
DOOR01
10
0
20
0
30
0
70
128
71
7
72
6
73
-2
0
VERTEX
8
DOOR01
10
0
20
0
30
0
70
128
71
3
72
-7
73
2
0
VERTEX
8
DOOR01
10
0
20
0
30
0
70
128
71
8
72
7
73
-3
0
VERTEX
8
DOOR01
10
0
20
0
30
0
70
128
71
4
72
-8
73
3
0
VERTEX
8
DOOR01
10
0
20
0
30
0
70
128
71
5
72
8
73
-4
0
VERTEX
8
DOOR01
10
0
20
0
30
0
70
128
71
1
72
-5
73
4
0
VERTEX
8
DOOR01
10
0
20
0
30
0
70
128
71
7
72
8
73
-5
0
VERTEX
8
DOOR01
10
0
20
0
30
0
70
128
71
6
72
-7
73
5
0
VERTEX
8
DOOR01
10
0
20
0
30
0
70
128
71
-9
72
11
73
-10
0
VERTEX
8
DOOR01
10
0
20
0
30
0
70
128
71
-9
72
12
73
-11
0
VERTEX
8
DOOR01
10
0
20
0
30
0
70
128
71
-9
72
13
73
-12
0
VERTEX
8
DOOR01
10
0
20
0
30
0
70
128
71
-9
72
14
73
-13
0
VERTEX
8
DOOR01
10
0
20
0
30
0
70
128
71
-9
72
15
73
-14
0
VERTEX
8
DOOR01
10
0
20
0
30
0
70
128
71
-9
72
16
73
-15
0
VERTEX
8
DOOR01
10
0
20
0
30
0
70
128
71
-9
72
17
73
-16
0
VERTEX
8
DOOR01
10
0
20
0
30
0
70
128
71
-9
72
18
73
-17
0
VERTEX
8
DOOR01
10
0
20
0
30
0
70
128
71
-9
72
19
73
-18
0
VERTEX
8
DOOR01
10
0
20
0
30
0
70
128
71
-9
72
10
73
-19
0
VERTEX
8
DOOR01
10
0
20
0
30
0
70
128
71
-10
72
21
73
20
0
VERTEX
8
DOOR01
10
0
20
0
30
0
70
128
71
10
72
11
73
-21
0
VERTEX
8
DOOR01
10
0
20
0
30
0
70
128
71
-11
72
22
73
21
0
VERTEX
8
DOOR01
10
0
20
0
30
0
70
128
71
11
72
12
73
-22
0
VERTEX
8
DOOR01
10
0
20
0
30
0
70
128
71
-12
72
23
73
22
0
VERTEX
8
DOOR01
10
0
20
0
30
0
70
128
71
12
72
13
73
-23
0
VERTEX
8
DOOR01
10
0
20
0
30
0
70
128
71
-13
72
24
73
23
0
VERTEX
8
DOOR01
10
0
20
0
30
0
70
128
71
13
72
14
73
-24
0
VERTEX
8
DOOR01
10
0
20
0
30
0
70
128
71
-14
72
25
73
24
0
VERTEX
8
DOOR01
10
0
20
0
30
0
70
128
71
14
72
15
73
-25
0
VERTEX
8
DOOR01
10
0
20
0
30
0
70
128
71
-15
72
26
73
25
0
VERTEX
8
DOOR01
10
0
20
0
30
0
70
128
71
15
72
16
73
-26
0
VERTEX
8
DOOR01
10
0
20
0
30
0
70
128
71
-16
72
27
73
26
0
VERTEX
8
DOOR01
10
0
20
0
30
0
70
128
71
16
72
17
73
-27
0
VERTEX
8
DOOR01
10
0
20
0
30
0
70
128
71
-17
72
28
73
27
0
VERTEX
8
DOOR01
10
0
20
0
30
0
70
128
71
17
72
18
73
-28
0
VERTEX
8
DOOR01
10
0
20
0
30
0
70
128
71
-18
72
29
73
28
0
VERTEX
8
DOOR01
10
0
20
0
30
0
70
128
71
18
72
19
73
-29
0
VERTEX
8
DOOR01
10
0
20
0
30
0
70
128
71
-19
72
20
73
29
0
VERTEX
8
DOOR01
10
0
20
0
30
0
70
128
71
19
72
10
73
-20
0
VERTEX
8
DOOR01
10
0
20
0
30
0
70
128
71
-30
72
20
73
-21
0
VERTEX
8
DOOR01
10
0
20
0
30
0
70
128
71
-30
72
21
73
-22
0
VERTEX
8
DOOR01
10
0
20
0
30
0
70
128
71
-30
72
22
73
-23
0
VERTEX
8
DOOR01
10
0
20
0
30
0
70
128
71
-30
72
23
73
-24
0
VERTEX
8
DOOR01
10
0
20
0
30
0
70
128
71
-30
72
24
73
-25
0
VERTEX
8
DOOR01
10
0
20
0
30
0
70
128
71
-30
72
25
73
-26
0
VERTEX
8
DOOR01
10
0
20
0
30
0
70
128
71
-30
72
26
73
-27
0
VERTEX
8
DOOR01
10
0
20
0
30
0
70
128
71
-30
72
27
73
-28
0
VERTEX
8
DOOR01
10
0
20
0
30
0
70
128
71
-30
72
28
73
-29
0
VERTEX
8
DOOR01
10
0
20
0
30
0
70
128
71
-30
72
29
73
-20
0
SEQEND
8
DOOR01
0
POLYLINE
8
DOOR03
66
1
70
64
71
8
72
12
62
204
0
VERTEX
8
DOOR03
10
0.501099
20
-18.999765
30
100.000092
70
192
0
VERTEX
8
DOOR03
10
51.858738
20
-18.999773
30
100.000092
70
192
0
VERTEX
8
DOOR03
10
51.858749
20
-18.999725
30
190.000168
70
192
0
VERTEX
8
DOOR03
10
0.501110
20
-18.999720
30
190.000168
70
192
0
VERTEX
8
DOOR03
10
0.501099
20
-20.999765
30
100.000099
70
192
0
VERTEX
8
DOOR03
10
51.858738
20
-20.999771
30
100.000092
70
192
0
VERTEX
8
DOOR03
10
51.858749
20
-20.999725
30
190.000168
70
192
0
VERTEX
8
DOOR03
10
0.500805
20
-20.999720
30
190.000168
70
192
0
VERTEX
8
DOOR03
10
0
20
0
30
0
70
128
71
3
72
2
73
-1
0
VERTEX
8
DOOR03
10
0
20
0
30
0
70
128
71
4
72
-3
73
1
0
VERTEX
8
DOOR03
10
0
20
0
30
0
70
128
71
6
72
5
73
-1
0
VERTEX
8
DOOR03
10
0
20
0
30
0
70
128
71
2
72
-6
73
1
0
VERTEX
8
DOOR03
10
0
20
0
30
0
70
128
71
7
72
6
73
-2
0
VERTEX
8
DOOR03
10
0
20
0
30
0
70
128
71
3
72
-7
73
2
0
VERTEX
8
DOOR03
10
0
20
0
30
0
70
128
71
8
72
7
73
-3
0
VERTEX
8
DOOR03
10
0
20
0
30
0
70
128
71
4
72
-8
73
3
0
VERTEX
8
DOOR03
10
0
20
0
30
0
70
128
71
5
72
8
73
-4
0
VERTEX
8
DOOR03
10
0
20
0
30
0
70
128
71
1
72
-5
73
4
0
VERTEX
8
DOOR03
10
0
20
0
30
0
70
128
71
7
72
8
73
-5
0
VERTEX
8
DOOR03
10
0
20
0
30
0
70
128
71
6
72
-7
73
5
0
SEQEND
8
DOOR03
0
POLYLINE
8
DOOR04
66
1
70
64
71
30
72
52
62
231
0
VERTEX
8
DOOR04
10
-51.858753
20
-18.999746
30
100.000092
70
192
0
VERTEX
8
DOOR04
10
-0.217999
20
-18.999760
30
100.000092
70
192
0
VERTEX
8
DOOR04
10
-0.218292
20
-18.999714
30
190.000153
70
192
0
VERTEX
8
DOOR04
10
-51.858742
20
-18.999701
30
190.000153
70
192
0
VERTEX
8
DOOR04
10
-51.858753
20
-20.999746
30
100.000084
70
192
0
VERTEX
8
DOOR04
10
-0.217999
20
-20.999760
30
100.000092
70
192
0
VERTEX
8
DOOR04
10
-0.218292
20
-20.999714
30
190.000153
70
192
0
VERTEX
8
DOOR04
10
-51.858742
20
-20.999699
30
190.000092
70
192
0
VERTEX
8
DOOR04
10
-3.382214
20
-20.999712
30
104.509918
70
192
0
VERTEX
8
DOOR04
10
-2.671108
20
-20.999712
30
104.509918
70
192
0
VERTEX
8
DOOR04
10
-2.806911
20
-20.999712
30
104.927902
70
192
0
VERTEX
8
DOOR04
10
-3.162472
20
-20.999712
30
105.186234
70
192
0
VERTEX
8
DOOR04
10
-3.601955
20
-20.999712
30
105.186234
70
192
0
VERTEX
8
DOOR04
10
-3.957516
20
-20.999712
30
104.927902
70
192
0
VERTEX
8
DOOR04
10
-4.093319
20
-20.999712
30
104.509918
70
192
0
VERTEX
8
DOOR04
10
-3.957516
20
-20.999712
30
104.091942
70
192
0
VERTEX
8
DOOR04
10
-3.601955
20
-20.999712
30
103.833618
70
192
0
VERTEX
8
DOOR04
10
-3.162472
20
-20.999712
30
103.833618
70
192
0
VERTEX
8
DOOR04
10
-2.806911
20
-20.999712
30
104.091942
70
192
0
VERTEX
8
DOOR04
10
-2.671108
20
-23.655579
30
104.509918
70
192
0
VERTEX
8
DOOR04
10
-2.806911
20
-23.655579
30
104.927902
70
192
0
VERTEX
8
DOOR04
10
-3.162472
20
-23.655579
30
105.186234
70
192
0
VERTEX
8
DOOR04
10
-3.601955
20
-23.655579
30
105.186234
70
192
0
VERTEX
8
DOOR04
10
-3.957516
20
-23.655579
30
104.927902
70
192
0
VERTEX
8
DOOR04
10
-4.093319
20
-23.655579
30
104.509918
70
192
0
VERTEX
8
DOOR04
10
-3.957516
20
-23.655579
30
104.091942
70
192
0
VERTEX
8
DOOR04
10
-3.601955
20
-23.655579
30
103.833618
70
192
0
VERTEX
8
DOOR04
10
-3.162472
20
-23.655579
30
103.833618
70
192
0
VERTEX
8
DOOR04
10
-2.806911
20
-23.655579
30
104.091942
70
192
0
VERTEX
8
DOOR04
10
-3.382214
20
-23.655579
30
104.509918
70
192
0
VERTEX
8
DOOR04
10
0
20
0
30
0
70
128
71
3
72
2
73
-1
0
VERTEX
8
DOOR04
10
0
20
0
30
0
70
128
71
4
72
-3
73
1
0
VERTEX
8
DOOR04
10
0
20
0
30
0
70
128
71
6
72
5
73
-1
0
VERTEX
8
DOOR04
10
0
20
0
30
0
70
128
71
2
72
-6
73
1
0
VERTEX
8
DOOR04
10
0
20
0
30
0
70
128
71
7
72
6
73
-2
0
VERTEX
8
DOOR04
10
0
20
0
30
0
70
128
71
3
72
-7
73
2
0
VERTEX
8
DOOR04
10
0
20
0
30
0
70
128
71
8
72
7
73
-3
0
VERTEX
8
DOOR04
10
0
20
0
30
0
70
128
71
4
72
-8
73
3
0
VERTEX
8
DOOR04
10
0
20
0
30
0
70
128
71
5
72
8
73
-4
0
VERTEX
8
DOOR04
10
0
20
0
30
0
70
128
71
1
72
-5
73
4
0
VERTEX
8
DOOR04
10
0
20
0
30
0
70
128
71
7
72
8
73
-5
0
VERTEX
8
DOOR04
10
0
20
0
30
0
70
128
71
6
72
-7
73
5
0
VERTEX
8
DOOR04
10
0
20
0
30
0
70
128
71
-9
72
11
73
-10
0
VERTEX
8
DOOR04
10
0
20
0
30
0
70
128
71
-9
72
12
73
-11
0
VERTEX
8
DOOR04
10
0
20
0
30
0
70
128
71
-9
72
13
73
-12
0
VERTEX
8
DOOR04
10
0
20
0
30
0
70
128
71
-9
72
14
73
-13
0
VERTEX
8
DOOR04
10
0
20
0
30
0
70
128
71
-9
72
15
73
-14
0
VERTEX
8
DOOR04
10
0
20
0
30
0
70
128
71
-9
72
16
73
-15
0
VERTEX
8
DOOR04
10
0
20
0
30
0
70
128
71
-9
72
17
73
-16
0
VERTEX
8
DOOR04
10
0
20
0
30
0
70
128
71
-9
72
18
73
-17
0
VERTEX
8
DOOR04
10
0
20
0
30
0
70
128
71
-9
72
19
73
-18
0
VERTEX
8
DOOR04
10
0
20
0
30
0
70
128
71
-9
72
10
73
-19
0
VERTEX
8
DOOR04
10
0
20
0
30
0
70
128
71
-10
72
21
73
20
0
VERTEX
8
DOOR04
10
0
20
0
30
0
70
128
71
10
72
11
73
-21
0
VERTEX
8
DOOR04
10
0
20
0
30
0
70
128
71
-11
72
22
73
21
0
VERTEX
8
DOOR04
10
0
20
0
30
0
70
128
71
11
72
12
73
-22
0
VERTEX
8
DOOR04
10
0
20
0
30
0
70
128
71
-12
72
23
73
22
0
VERTEX
8
DOOR04
10
0
20
0
30
0
70
128
71
12
72
13
73
-23
0
VERTEX
8
DOOR04
10
0
20
0
30
0
70
128
71
-13
72
24
73
23
0
VERTEX
8
DOOR04
10
0
20
0
30
0
70
128
71
13
72
14
73
-24
0
VERTEX
8
DOOR04
10
0
20
0
30
0
70
128
71
-14
72
25
73
24
0
VERTEX
8
DOOR04
10
0
20
0
30
0
70
128
71
14
72
15
73
-25
0
VERTEX
8
DOOR04
10
0
20
0
30
0
70
128
71
-15
72
26
73
25
0
VERTEX
8
DOOR04
10
0
20
0
30
0
70
128
71
15
72
16
73
-26
0
VERTEX
8
DOOR04
10
0
20
0
30
0
70
128
71
-16
72
27
73
26
0
VERTEX
8
DOOR04
10
0
20
0
30
0
70
128
71
16
72
17
73
-27
0
VERTEX
8
DOOR04
10
0
20
0
30
0
70
128
71
-17
72
28
73
27
0
VERTEX
8
DOOR04
10
0
20
0
30
0
70
128
71
17
72
18
73
-28
0
VERTEX
8
DOOR04
10
0
20
0
30
0
70
128
71
-18
72
29
73
28
0
VERTEX
8
DOOR04
10
0
20
0
30
0
70
128
71
18
72
19
73
-29
0
VERTEX
8
DOOR04
10
0
20
0
30
0
70
128
71
-19
72
20
73
29
0
VERTEX
8
DOOR04
10
0
20
0
30
0
70
128
71
19
72
10
73
-20
0
VERTEX
8
DOOR04
10
0
20
0
30
0
70
128
71
-30
72
20
73
-21
0
VERTEX
8
DOOR04
10
0
20
0
30
0
70
128
71
-30
72
21
73
-22
0
VERTEX
8
DOOR04
10
0
20
0
30
0
70
128
71
-30
72
22
73
-23
0
VERTEX
8
DOOR04
10
0
20
0
30
0
70
128
71
-30
72
23
73
-24
0
VERTEX
8
DOOR04
10
0
20
0
30
0
70
128
71
-30
72
24
73
-25
0
VERTEX
8
DOOR04
10
0
20
0
30
0
70
128
71
-30
72
25
73
-26
0
VERTEX
8
DOOR04
10
0
20
0
30
0
70
128
71
-30
72
26
73
-27
0
VERTEX
8
DOOR04
10
0
20
0
30
0
70
128
71
-30
72
27
73
-28
0
VERTEX
8
DOOR04
10
0
20
0
30
0
70
128
71
-30
72
28
73
-29
0
VERTEX
8
DOOR04
10
0
20
0
30
0
70
128
71
-30
72
29
73
-20
0
SEQEND
8
DOOR04
0
ENDSEC
0
EOF
